<?xml version="1.0" encoding="utf-8"?>
<!-- Generator: Adobe Illustrator 18.1.1, SVG Export Plug-In . SVG Version: 6.00 Build 0)  -->
<svg version="1.1" id="Layer_1" xmlns="http://www.w3.org/2000/svg" xmlns:xlink="http://www.w3.org/1999/xlink" x="0px" y="0px"
	 viewBox="0 0 200 34" enable-background="new 0 0 200 34" xml:space="preserve">
<g>
	<path fill="#010101" d="M25.1,17c0-1.6,0.3-3.1,0.9-4.5c0.6-1.4,1.4-2.6,2.5-3.7c1-1,2.3-1.9,3.7-2.5c1.4-0.6,2.9-0.9,4.5-0.9
		c1.6,0,3.1,0.3,4.5,0.9c1.4,0.6,2.6,1.4,3.7,2.5c1,1,1.9,2.3,2.5,3.7c0.6,1.4,0.9,2.9,0.9,4.5c0,1.6-0.3,3.1-0.9,4.5
		c-0.6,1.4-1.4,2.6-2.5,3.7c-1,1-2.3,1.9-3.7,2.5c-1.4,0.6-2.9,0.9-4.5,0.9c-1.6,0-3.1-0.3-4.5-0.9c-1.4-0.6-2.6-1.4-3.7-2.5
		c-1-1-1.9-2.3-2.5-3.7C25.4,20.1,25.1,18.6,25.1,17 M28.8,17c0,1.1,0.2,2.1,0.6,3.1c0.4,1,1,1.8,1.7,2.5c0.7,0.7,1.5,1.3,2.5,1.7
		c1,0.4,2,0.6,3.1,0.6c1.1,0,2.1-0.2,3.1-0.6c1-0.4,1.8-1,2.5-1.7c0.7-0.7,1.3-1.5,1.7-2.5c0.4-1,0.6-2,0.6-3.1
		c0-1.1-0.2-2.1-0.6-3.1c-0.4-1-1-1.8-1.7-2.5c-0.7-0.7-1.5-1.3-2.5-1.7c-1-0.4-2-0.6-3.1-0.6c-1.1,0-2.1,0.2-3.1,0.6
		c-1,0.4-1.8,1-2.5,1.7c-0.7,0.7-1.3,1.5-1.7,2.5C29,14.9,28.8,16,28.8,17"/>
	<polygon fill="#010101" points="55.5,5.9 55.5,15.2 64,5.9 69,5.9 58.9,17 69.4,28.2 64.3,28.2 56.4,19.8 55.5,20.7 55.5,28.2 
		51.7,28.2 51.7,5.9 	"/>
	<path fill="#010101" d="M69.4,17.1c0-1.6,0.3-3.1,0.9-4.5c0.6-1.4,1.4-2.6,2.5-3.7c1-1,2.3-1.9,3.7-2.5c1.4-0.6,2.9-0.9,4.5-0.9
		c1.6,0,3.1,0.3,4.5,0.9c1.4,0.6,2.6,1.4,3.7,2.5c1,1,1.9,2.3,2.5,3.7c0.6,1.4,0.9,2.9,0.9,4.5c0,1.6-0.3,3.1-0.9,4.5
		c-0.6,1.4-1.4,2.6-2.5,3.7c-1,1-2.3,1.9-3.7,2.5c-1.4,0.6-2.9,0.9-4.5,0.9c-1.6,0-3.1-0.3-4.5-0.9c-1.4-0.6-2.6-1.4-3.7-2.5
		c-1-1-1.9-2.3-2.5-3.7C69.7,20.2,69.4,18.7,69.4,17.1 M73.1,17.1c0,1.1,0.2,2.1,0.6,3.1c0.4,1,1,1.8,1.7,2.5
		c0.7,0.7,1.5,1.3,2.5,1.7c1,0.4,2,0.6,3.1,0.6c1.1,0,2.1-0.2,3.1-0.6c1-0.4,1.8-1,2.5-1.7c0.7-0.7,1.3-1.5,1.7-2.5
		c0.4-1,0.6-2,0.6-3.1c0-1.1-0.2-2.1-0.6-3.1c-0.4-1-1-1.8-1.7-2.5c-0.7-0.7-1.5-1.3-2.5-1.7c-1-0.4-2-0.6-3.1-0.6
		c-1.1,0-2.1,0.2-3.1,0.6c-1,0.4-1.8,1-2.5,1.7c-0.7,0.7-1.3,1.5-1.7,2.5C73.3,15,73.1,16,73.1,17.1"/>
	<polygon fill="#EB0D8C" points="145.3,24.4 133.4,24.4 133.4,5.9 129.6,5.9 129.6,24.3 129.6,28.2 129.6,28.1 129.7,28 133.5,28 
		145.3,28 	"/>
	<polygon fill="#EB0D8C" points="187.5,5.9 182,22.4 176.5,5.9 171.1,5.9 171.1,21.9 171.1,21.8 171.1,28.2 174.7,28.2 174.7,12.2 
		180,28.2 184.1,28.2 189.4,12.2 189.4,28.2 193,28.2 193,5.9 	"/>
	<path fill="#EB0D8C" d="M165.4,22l-5.7-16.1h-3.5l-6.6,18.6l-1.4,3.6h4.2l1.3-3.8h8.4l1.3,3.8h4.1L165.4,22z M155.1,20.7l2.9-8.1
		l2.9,8.1H155.1z"/>
	<path fill="#010101" d="M116.9,16.9h9v0.7c0,1.6-0.2,3.1-0.6,4.4c-0.4,1.2-1,2.3-1.9,3.3c-2,2.3-4.6,3.4-7.7,3.4
		c-3.1,0-5.7-1.1-7.9-3.3c-2.2-2.2-3.3-4.9-3.3-8c0-3.2,1.1-5.9,3.3-8.1c2.2-2.2,4.9-3.3,8.1-3.3c1.7,0,3.3,0.3,4.8,1
		c1.4,0.7,2.8,1.8,4.2,3.4l-2.4,2.3c-1.8-2.4-4-3.6-6.6-3.6c-2.3,0-4.3,0.8-5.8,2.4c-1.6,1.6-2.4,3.5-2.4,5.9c0,2.4,0.9,4.4,2.6,6
		c1.6,1.5,3.4,2.2,5.3,2.2c1.6,0,3.1-0.5,4.4-1.6c1.3-1.1,2-2.4,2.2-4h-5.5V16.9z"/>
	<path fill="#EB0D8C" d="M116.9,16.9h9v0.7c0,1.6-0.2,3.1-0.6,4.4c-0.4,1.2-1,2.3-1.9,3.3c-2,2.3-4.6,3.4-7.7,3.4
		c-3.1,0-5.7-1.1-7.9-3.3c-2.2-2.2-3.3-4.9-3.3-8c0-3.2,1.1-5.9,3.3-8.1c2.2-2.2,4.9-3.3,8.1-3.3c1.7,0,3.3,0.3,4.8,1
		c1.4,0.7,2.8,1.8,4.2,3.4l-2.4,2.3c-1.8-2.4-4-3.6-6.6-3.6c-2.3,0-4.3,0.8-5.8,2.4c-1.6,1.6-2.4,3.5-2.4,5.9c0,2.4,0.9,4.4,2.6,6
		c1.6,1.5,3.4,2.2,5.3,2.2c1.6,0,3.1-0.5,4.4-1.6c1.3-1.1,2-2.4,2.2-4h-5.5V16.9z"/>
	<path fill="#010101" d="M21.9,21.9c0,3.9-3.4,6.9-7.9,6.9c-4.5,0-7.6-2.5-7.8-6.5l3.3-0.5l0,0.3c0.3,2.3,2,3.6,4.5,3.6
		c2.3,0,4.3-1.6,4.3-3.6c0-2-1.6-3.2-5-4.2c-3.2-0.9-6.5-1.8-6.5-6.2c0-3.7,3-6.3,7.2-6.3c3.2,0,5.6,1.5,6.6,3.9l-2.9,1.6
		c-0.8-1.4-2-2.3-3.7-2.3c-2,0-3.6,1.3-3.6,3c0,1.9,1.7,2.5,4.3,3.2c0.3,0.1,0.6,0.1,0.8,0.2C19.7,16,21.9,18.5,21.9,21.9z"/>
</g>
</svg>
